<svg xmlns="http://www.w3.org/2000/svg" xmlns:xlink="http://www.w3.org/1999/xlink" width="100%" height="100%" viewBox="101.6097412109375 191.1659698486328 397.16522216796875 125.269287109375" preserveAspectRatio="xMidYMid meet" ><rect id="svgEditorBackground" x="0" y="0" width="770" height="640" style="fill:none;stroke:none; opacity: 50%"/><path d="M107.327,287.525l1.32,0l2.64,-.396l3.678,-.594l2.511,-.495l4.703,-.866l5.569,-1.114l6.436,-1.361l7.426,-1.733l8.416,-1.733l9.282,-1.98l10.149,-2.228l10.52,-2.104l10.891,-2.228l11.386,-2.104l12.252,-2.351l12.376,-2.228l12.871,-2.228l13.243,-2.475l13.614,-2.228l14.356,-2.475l15.347,-2.599l16.213,-2.599l16.46,-2.351l17.327,-2.228l17.946,-1.98l18.317,-1.733l18.193,-1.733l17.574,-1.485l16.337,-1.114l15.594,-1.114l14.48,-.866l12.871,-.743l10.891,-.743l9.158,-.371l7.302,-.124l5.941,0l6.312,.83l3.465,.413l.99,.743" style="stroke:red;fill:none;stroke-width:95.22px;opacity:0.5" id="e2_freepath" transform="matrix(0.878898 0.0396025 -0.0396025 0.878898 22.6171 14.8955)"/></svg>