<svg xmlns="http://www.w3.org/2000/svg" version="1.1" xmlns:xlink="http://www.w3.org/1999/xlink" viewBox="0 0 800 800" style="overflow: hidden; display: block;" width="800" height="800"><defs></defs><g id="two-0" transform="matrix(1 0 0 1 0 0)" opacity="1"></g><path d="M 250.6855403783134 337.98579842363773 Q 250.6855403783134 337.98579842363773 253.70042914084274 337.4184471899114 256.7153179033721 336.85109595618496 261.10099035711926 336.37474576336206 265.48666281086645 335.8983955705392 270.2575856517965 335.8091934160533 275.02850849272653 335.7199912615674 279.06968965895913 335.2477987004204 283.11087082519174 334.77560613927335 288.3660385077329 334.2877811290067 293.62120619027417 333.79995611874006 298.210605738137 333.4201048030759 302.8000052859999 333.0402534874118 305.58107364575744 332.8862786144249 308.36214200551495 332.73230374143805 313.3607488275253 332.3804837740357 318.3593556495357 332.02866380663346 321.8055100431421 331.9270268318458 325.25166443674846 331.82538985705816 328.5612790098277 331.5529437507473 331.87089358290694 331.2804976444364 334.7223932463671 330.8610747105912 337.57389290982724 330.441651776746 341.30376356764543 330.0232849977459 345.0336342254636 329.6049182187458 348.6964221307338 329.1623620902905 352.3592100360041 328.7198059618352 355.59299719187067 328.48150450536673 358.82678434773726 328.2432030488982 362.3458867733333 328.17125249543665 365.8649891989293 328.0993019419751 368.8512182483384 328.0442697990088 371.8374472977475 327.9892376560426 374.6121603265896 327.947098913681 377.38687335543176 327.90496017131943 382.2967023971222 327.1508069238554 387.2065314388126 326.3966536763914 390.0704024324903 326.1627227348039 392.93427342616803 325.92879179321636 397.75359198345615 325.3310036398169 402.57291054074426 324.7332154864174 407.7839845789446 324.33888279699386 412.995058617145 323.9445501075703 418.60468695939494 323.7185463926135 424.2143153016449 323.49254267765673 427.2722185638186 323.4849516150648 430.33012182599236 323.4773605524729 433.7346738070303 323.5149033148619 437.13922578806813 323.5524460772509 440.69031805571433 323.6036923306326 444.2414103233605 323.65493858401436 447.85557424810577 323.70575808441805 451.469738172851 323.75657758482174 456.31394464094103 323.9627785039229 461.158151109031 324.1689794230241 464.7203569381504 324.1699265757693 468.28256276726984 324.1708737285145 473.4053767918958 324.3721200999402 478.5281908165217 324.57336647136594 483.411946711732 324.6869562699254 488.2957026069423 324.8005460684849 492.7771538246849 324.8342738388909 497.25860504242746 324.86800160929687 502.170549760948 324.9495621663458 507.0824944794685 325.03112272339473 512.1773970055319 325.11825265381947 517.2722995315954 325.20538258424415 522.1442109983595 325.24031642332073 527.0161224651235 325.2752502623973 531.7932804655433 325.28984487195225 536.570438465963 325.3044394815072 542.2096891678787 325.41662515930017 547.8489398697944 325.52881083709315 553.0487192501726 325.85839811030746 558.2484986305507 326.1879853835218 563.7515838469928 326.69172745540186 569.2546690634351 327.19546952728194 574.4079063116958 327.9914055374122 579.5611435599566 328.7873415475425 584.9427082740259 329.4647641703461 590.3242729880952 330.1421867931497 595.7125494564208 331.04738648287946 601.1008259247463 331.9525861726092 606.6802841723008 332.9594641075462 612.2597424198553 333.9663420424832 616.9143644632534 334.2994234440099 621.5689865066515 334.6325048455367 625.8716276047576 335.3275581555516 630.1742687028635 336.0226114655666 634.0159599020384 336.54324298649794 637.8576511012133 337.0638745074293 641.2154740429532 337.8538282775352 644.5732969846933 338.6437820476411 646.9050099683152 338.84114339295354 649.236722951937 339.038504738266 649.8491680570928 339.2326760118456 650.4616131622486 339.42684728542525 650.9799955970345 339.80641433038335 651.4983780318204 340.18598137534144 651.8684230184747 340.7112034218749 652.238468005129 341.2364254684084 652.4214317358666 341.8523116296 652.6043954666042 342.46819779079163 652.5811215905192 343.1102646229865 652.557847714434 343.7523314551814 652.3307730124961 344.3533543915595 652.1036983105582 344.95437732793766 651.6965975640022 345.4514291084056 651.2894968174462 345.9484808888735 650.7449935819009 346.2895200608074 650.2004903463554 346.63055923274123 649.5755942543169 346.7798789048139 648.9506981622785 346.92919857688656 648.3108359995401 346.8711649400155 647.6709738368016 346.8131313031444 647.0831393407091 346.5538204944294 646.4953048446166 346.2945096857144 646.0210444420841 345.86107161527923 645.5467840395517 345.4276335448441 645.235752919917 344.86544929308 644.9247218002823 344.3032650413159 644.8094850038754 343.6711954477847 644.6942482074685 343.0391258542536 644.7868710572927 342.40334877224825 644.8794939071169 341.76757169024296 645.1702787663455 341.19465314807826 645.4610636255742 340.6217346059135 645.9195652426863 340.1716593261899 646.3780668597985 339.72158404646626 646.9562799944499 339.4414750297791 647.5344931291013 339.161366013092 648.1718787134604 339.0805507474301 648.8092642978195 338.9997354817682 649.4390878929505 339.12667534677945 650.0689114880814 339.2536152117907 650.6252303973167 339.5750195700996 651.1815493065521 339.8964239284085 651.606116793241 340.37864165885765 652.0306842799299 340.8608593893067 652.279048016141 341.45340216822484 652.5274117523521 342.04594494714297 652.5735679893426 342.6867733891613 652.619724226333 343.32760183117966 652.4588403939058 343.9496210292566 652.2979565614785 344.5716402273336 651.946877239358 345.1097246072334 651.5957979172374 345.64780898713315 651.0912812031255 346.0456209722398 650.5867644890136 346.44343295734643 649.9816334160573 346.6593215278071 649.3765023431009 346.87521009826776 648.7341142943778 346.8865716637662 648.0917262456549 346.89793322926454 648.0923157027961 346.89801910401815 648.0929051599373 346.89810497877176 645.3454993846802 346.3562955995804 642.5980936094231 345.814486220389 639.6659483259975 344.86521475636823 636.733803042572 343.9159432923474 632.8515900883242 343.1746885776497 628.9693771340764 342.433433862952 625.0045556216473 341.57458859407427 621.0397341092182 340.7157433251965 616.1480150434988 340.22300120929185 611.2562959777796 339.73025909338713 605.6954914536515 338.7940228696619 600.1346869295234 337.85778664593664 594.8778267866287 337.02136145407144 589.620966643734 336.1849362622063 584.107275837607 335.5948264200439 578.5935850314798 335.0047165778815 573.6782558960522 334.2334687636203 568.7629267606246 333.4622209493591 563.3121880699052 333.1088801026342 557.8614493791857 332.7555392559093 552.8548544065455 332.48366505474064 547.8482594339054 332.211790853572 542.2093496062007 332.32397727868073 536.5704397784959 332.4361637037895 531.7932826483291 332.45076007173446 527.0161255181622 332.46535643967945 522.1442160262391 332.5002944161444 517.2723065343158 332.5352323926094 512.1774094585968 332.6223720580655 507.0825123828777 332.70951172352153 502.1705827798788 332.79109518652666 497.2586531768799 332.8726786495318 492.7772307325454 332.90646031630536 488.2958082882109 332.94024198307886 483.41212470452206 333.05395859662076 478.52844112083324 333.16767521016266 473.4059651319189 333.36921996978236 468.28348914300454 333.5707647294021 464.72162212029673 333.5724139720154 461.1597550975889 333.5740632146287 456.3174995791875 333.7819161098903 451.475244060786 333.9897690051518 447.8650616811488 334.04447550828576 444.2548793015116 334.0991820114197 440.71398048014663 334.15957415357855 437.17308165878165 334.2199662957373 433.79706658697614 334.2790287964254 430.4210515151707 334.33809129711346 427.431150162543 334.38113491287226 424.44124880991535 334.42417852863105 419.3000773077085 334.5976456324963 414.1589058055016 334.7711127363616 410.88566442179393 335.1405650854103 407.61242303808626 335.510017434459 403.2114190263817 335.65113277348644 398.8104150146772 335.79224811251385 393.8567133006412 336.2980816124693 388.9030115866052 336.8039151124247 386.1367555666504 337.2294163365501 383.37049954669556 337.65491756067547 377.67199504976827 337.9451507539022 371.97349055284093 338.23538394712904 369.0570515259936 338.2587256264828 366.14061249914624 338.2820673058367 362.84714652782924 338.39452574606946 359.55368055651223 338.50698418630225 356.66436581741345 338.7025862444086 353.7750510783147 338.89818830251505 350.1066027779449 339.4765816201184 346.4381544775751 340.05497493772174 342.82452839636426 340.6235966445076 339.2109023151535 341.19221835129343 336.10526114218055 341.67991704990425 332.9996199692076 342.167615748515 329.3684949449581 342.61436926682484 325.7373699207086 343.0611227851346 322.7588431242538 343.2365160047669 319.780316327799 343.41190922439915 316.8871156908307 343.76749781432454 313.99391505386234 344.12308640425 309.1515721016057 344.3109526627146 304.3092291493491 344.4988189211793 301.52727527143196 344.85309991530687 298.7453213935148 345.20738090943445 294.12901701276144 345.3978936141493 289.51271263200806 345.58840631886426 286.7151288112102 345.9771389872516 283.9175449904123 346.3658716556389 279.5210573439271 346.77455542242956 275.1245696974419 347.18323918922016 270.643181687354 347.22562606730554 266.1617936772661 347.2680129453909 262.5291876702722 347.5201833481186 258.8965816632783 347.77235375084626 255.89682618447466 348.4079261011043 252.89707070567098 349.04349845136227 252.21941307107582 349.09548178742 251.54175543648066 349.1474651234778 250.8713497338142 349.03575867431266 250.20094403114774 348.9240522251475 249.57675427134782 348.6551483748334 248.9525645115479 348.3862445245194 248.41086863278156 347.975771977471 247.86917275401518 347.5652994304227 247.44145414620772 347.0371148703606 247.01373553840028 346.5089303102984 246.7248532271338 345.89373184866986 246.43597091586733 345.2785333870413 246.3027147546457 344.6120763873412 246.16945859342405 343.9456193876411 246.19957343659848 343.2666383620053 246.22968827977292 342.5876573363696 246.42142385124316 341.93561469390994 246.6131594227134 341.2835720514503 246.95537204205698 340.69636454118256 247.29758466140058 340.10915703091484 247.77038491510243 339.62091318092564 248.24318516880427 339.1326693309365 248.81909388390483 338.77176589672723 249.39500259900538 338.41086246251797 250.04054793392402 338.1982751686419 250.68609326884268 337.9856878747658 250.68581682357802 337.98574314920177 Z" fill="hsl(205, 64%, 63%)"></path></svg>